P2
4 5
255
13 9 5 1 14 10 6 2 15 11 7 3 16 12 8 4 0 0 0 0
