P2
4 3
255
10 7 4 1 11 8 5 2 12 9 6 3
