P2
5 4
255
17 13 9 5 1 18 14 10 6 2 19 15 11 7 3 20 16 12 8 4
